<svg version="1.1" id="Layer_1" xmlns="http://www.w3.org/2000/svg" xmlns:xlink="http://www.w3.org/1999/xlink" x="0px" y="0px"
	 width="100%" viewBox="0 0 1080 1080" enable-background="new 0 0 1080 1080" xml:space="preserve">
<path
        fill="#0097B2"
        opacity="1.000000"
        stroke="none"
        d="
M622.212952,813.056885 
	C612.123291,814.731628 602.516113,817.128662 592.786072,817.836121 
	C575.455505,819.096313 558.054199,819.743042 540.676025,819.890747 
	C521.390869,820.054749 502.243469,817.558655 483.637054,812.657959 
	C465.217133,807.806519 446.716370,802.688171 429.058960,795.657898 
	C406.085266,786.510803 384.396271,774.566406 364.256653,759.915894 
	C348.353943,748.347534 333.039276,736.146606 319.479340,721.906189 
	C299.257507,700.669617 281.457489,677.623596 267.279388,651.814270 
	C255.889816,631.080994 246.709061,609.490723 239.924072,586.856506 
	C234.850052,569.929749 231.262238,552.730469 228.823181,535.189209 
	C226.210922,516.402283 224.980499,497.542084 226.259277,478.755493 
	C227.547607,459.828735 230.308823,440.936188 233.565857,422.227295 
	C237.129425,401.757660 244.085098,382.148590 252.118454,363.014099 
	C261.660217,340.286652 273.796356,318.888763 288.563019,299.202820 
	C298.714935,285.668976 309.739075,272.679413 321.380005,260.400970 
	C335.206390,245.817337 350.927399,233.273117 367.556305,221.879929 
	C394.737518,203.256897 423.943848,188.837585 455.348145,178.928848 
	C473.286499,173.268906 491.616821,169.468521 510.281403,166.823593 
	C530.562744,163.949539 550.903076,163.343262 571.225464,164.172852 
	C597.637390,165.251022 623.630371,169.818817 648.952759,177.530762 
	C672.488342,184.698532 694.852173,194.623093 716.376770,206.608292 
	C734.048767,216.448334 750.657898,227.829376 766.023071,240.812775 
	C782.329956,254.591904 797.137573,269.958069 810.508545,286.755005 
	C826.617981,306.992004 840.334656,328.649200 851.385193,351.955383 
	C862.757690,375.940552 870.959534,401.019867 876.069763,427.124329 
	C879.747864,445.913513 881.543457,464.800232 882.165344,483.951508 
	C883.272644,518.054932 878.732788,551.278931 869.522034,584.022278 
	C863.291565,606.171082 854.945862,627.556763 843.546814,647.416565 
	C833.805115,664.388489 822.826416,680.826965 810.801392,696.259766 
	C799.799622,710.379272 787.323059,723.533508 774.298706,735.846191 
	C758.452271,750.826660 740.611511,763.444946 721.829346,774.671631 
	C703.780579,785.459778 684.800964,794.333435 665.033386,801.245239 
	C651.219055,806.075439 636.792969,809.156006 622.212952,813.056885 
M468.862762,631.181519 
	C468.862762,631.181519 468.801025,631.234802 468.901184,631.966675 
	C470.918335,640.981445 473.318268,649.933350 474.813690,659.033813 
	C475.758911,664.786072 478.146698,669.177979 483.127563,671.792297 
	C494.336914,677.675659 506.122803,678.652100 518.944946,675.159607 
	C525.747253,677.788025 532.399841,680.936340 539.380188,682.946655 
	C559.658813,688.786865 580.583984,690.459961 601.548096,691.450195 
	C636.994751,693.124634 672.212524,691.700623 706.103516,679.941895 
	C739.697327,668.286316 762.983765,647.229980 766.575256,609.555725 
	C769.246887,581.530762 759.892761,559.101562 735.241699,544.350403 
	C727.236450,539.560120 718.488342,536.011292 710.041870,531.875977 
	C711.215149,531.363037 712.689819,530.695190 714.182312,530.069702 
	C724.746338,525.642395 734.130859,519.536011 742.005859,511.113251 
	C764.696167,486.844757 757.920898,443.762939 738.218323,423.817261 
	C724.296875,409.723969 707.071472,401.896912 688.295166,397.051147 
	C659.798584,389.696716 630.742920,388.693329 601.389343,389.186371 
	C600.549194,381.836823 596.241028,377.077515 589.822327,374.048004 
	C582.325012,370.509338 574.333618,369.909271 566.364502,371.490295 
	C547.152832,375.301910 530.436096,384.242035 515.709656,397.060364 
	C513.547668,398.942108 511.156006,400.559967 508.870605,402.299957 
	C508.368958,402.045563 507.867310,401.791168 507.365662,401.536774 
	C508.462524,392.531586 509.244965,383.474243 510.727936,374.533112 
	C513.110657,360.166962 515.354614,345.903046 510.691803,331.532257 
	C510.253754,330.182251 511.564362,328.280853 512.017029,326.622864 
	C513.525330,321.098999 516.555725,315.471588 516.212708,310.060791 
	C515.261963,295.067383 498.363922,287.291077 483.939850,294.289215 
	C481.962555,295.248566 479.271179,295.648163 477.139648,295.204834 
	C470.980774,293.923889 465.027557,291.352051 458.834045,290.598297 
	C442.310638,288.587494 425.802460,288.786163 410.388153,296.169556 
	C406.612549,297.978088 404.107056,298.044952 400.515350,295.955902 
	C391.328033,290.612244 380.836945,292.305389 374.028198,299.614288 
	C366.401337,307.801422 365.629761,316.787994 371.815979,326.487640 
	C373.064636,328.445465 374.816406,330.102203 375.924896,332.123291 
	C376.788849,333.698578 377.469177,335.630493 377.443878,337.392609 
	C377.341248,344.534424 375.904541,351.814270 376.867737,358.779358 
	C378.547119,370.923035 381.420410,382.922577 384.240082,394.877136 
	C385.362885,399.637421 384.805634,403.600342 382.283722,407.684113 
	C365.691650,434.551941 355.002472,463.914001 346.414032,494.088257 
	C338.105865,523.277710 334.320526,553.009888 341.172852,582.940491 
	C345.921356,603.681396 348.834442,624.125244 343.750977,645.137207 
	C342.465179,650.451965 345.624634,654.076294 349.672913,656.842468 
	C362.686432,665.734680 376.783081,671.732727 392.779022,672.345093 
	C403.744110,672.764832 407.307220,669.729675 406.942566,658.855896 
	C406.625946,649.415466 410.242920,642.449524 417.698578,637.135010 
	C420.953339,634.815002 424.044525,632.127686 427.597168,630.406067 
	C430.526978,628.986267 434.022858,628.132629 437.275635,628.109375 
	C443.587067,628.064148 449.918762,628.625610 456.213409,629.232605 
	C460.428680,629.639099 464.594574,630.557556 468.862762,631.181519 
z"
      />
      <path
        fill="#FEFFFF"
        opacity="1.000000"
        stroke="none"
        d="
M601.520325,389.989624 
	C630.742920,388.693329 659.798584,389.696716 688.295166,397.051147 
	C707.071472,401.896912 724.296875,409.723969 738.218323,423.817261 
	C757.920898,443.762939 764.696167,486.844757 742.005859,511.113251 
	C734.130859,519.536011 724.746338,525.642395 714.182312,530.069702 
	C712.689819,530.695190 711.215149,531.363037 710.041870,531.875977 
	C718.488342,536.011292 727.236450,539.560120 735.241699,544.350403 
	C759.892761,559.101562 769.246887,581.530762 766.575256,609.555725 
	C762.983765,647.229980 739.697327,668.286316 706.103516,679.941895 
	C672.212524,691.700623 636.994751,693.124634 601.548096,691.450195 
	C580.583984,690.459961 559.658813,688.786865 539.380188,682.946655 
	C532.399841,680.936340 525.747253,677.788025 518.394409,674.811401 
	C506.428406,666.832214 501.822021,656.006042 502.015411,642.464539 
	C502.279419,623.979614 502.013855,605.487122 502.033997,586.533203 
	C502.086700,558.296814 502.102692,530.525208 502.066040,502.753571 
	C502.045868,487.458618 501.937195,472.163757 501.942200,456.413513 
	C502.042297,445.821930 502.135040,435.685333 502.074493,425.549622 
	C502.023682,417.046051 505.211029,410.363403 512.667908,406.004761 
	C527.359314,397.417450 542.746643,394.398102 559.460938,399.474640 
	C567.191833,401.822723 575.150391,403.852509 583.147034,404.711700 
	C587.115417,405.138123 591.866455,403.351471 595.418884,401.182709 
	C599.127808,398.918365 602.381775,395.284943 601.520325,389.989624 
M634.846985,628.270081 
	C640.883911,627.167297 647.101440,626.643311 652.916382,624.829102 
	C662.163513,621.944153 670.389404,617.295654 673.997009,607.361267 
	C680.445068,589.605286 671.830627,573.825073 653.198547,569.927551 
	C632.282532,565.552307 611.063049,568.005066 589.968933,567.694763 
	C589.705078,567.690796 589.436096,568.032837 588.832886,568.441284 
	C588.832886,586.350403 588.763672,604.484497 588.996521,622.614685 
	C589.011230,623.761780 591.312012,625.771973 592.660950,625.871826 
	C606.407349,626.889587 620.176880,627.594116 634.846985,628.270081 
M617.496826,509.835449 
	C624.633484,509.546814 631.821716,509.699005 638.895081,508.869995 
	C650.597290,507.498505 661.092896,503.557281 665.764832,491.378143 
	C672.111328,474.834076 663.983276,460.158875 645.969177,455.009003 
	C632.446167,451.142975 618.658264,451.691132 604.862061,452.470703 
	C599.615723,452.767151 594.384033,453.324341 589.222778,453.756226 
	C589.222778,472.808380 589.222778,491.158356 589.222778,509.835449 
	C598.578430,509.835449 607.538147,509.835449 617.496826,509.835449 
z"
      />
      <path
        fill="#C67F51"
        opacity="1.000000"
        stroke="none"
        d="
M601.454834,389.588013 
	C602.381775,395.284943 599.127808,398.918365 595.418884,401.182709 
	C591.866455,403.351471 587.115417,405.138123 583.147034,404.711700 
	C575.150391,403.852509 567.191833,401.822723 559.460938,399.474640 
	C542.746643,394.398102 527.359314,397.417450 512.667908,406.004761 
	C505.211029,410.363403 502.023682,417.046051 502.074493,425.549622 
	C502.135040,435.685333 502.042297,445.821930 501.717163,456.185608 
	C498.075470,452.283417 495.150177,447.710236 491.316620,444.102020 
	C475.826630,429.522583 453.557831,431.640594 442.675140,448.895599 
	C458.361115,455.285583 476.648468,455.304077 488.926025,468.380859 
	C488.719482,470.642975 488.611542,473.193298 488.226776,475.701172 
	C487.717896,479.018494 488.019775,483.174652 486.127625,485.403961 
	C483.005981,489.081879 478.738892,492.184326 474.365143,494.325195 
	C463.165283,499.807404 451.076782,501.084076 438.821472,499.357086 
	C431.662140,498.348206 424.632202,496.421478 417.354218,494.867126 
	C417.113281,495.300659 416.658417,495.834167 416.500458,496.444550 
	C410.797119,518.484009 408.645966,540.651367 414.569183,563.008301 
	C416.734436,571.180908 420.494232,578.437195 427.116821,584.106506 
	C443.856934,598.437012 479.994843,604.863892 501.975342,586.997864 
	C502.013855,605.487122 502.279419,623.979614 502.015411,642.464539 
	C501.822021,656.006042 506.428406,666.832214 518.056396,674.739502 
	C506.122803,678.652100 494.336914,677.675659 483.127563,671.792297 
	C478.146698,669.177979 475.758911,664.786072 474.813690,659.033813 
	C473.318268,649.933350 470.918335,640.981445 469.305664,631.537231 
	C479.572937,630.423584 489.024475,628.204651 498.023407,624.143188 
	C497.227173,623.279907 496.561249,623.023010 495.973022,623.143921 
	C487.883362,624.807495 479.782928,626.432312 471.746765,628.327881 
	C470.593384,628.599915 469.762634,630.239990 468.782562,631.246948 
	C464.594574,630.557556 460.428680,629.639099 456.213409,629.232605 
	C449.918762,628.625610 443.587067,628.064148 437.275635,628.109375 
	C434.022858,628.132629 430.526978,628.986267 427.597168,630.406067 
	C424.044525,632.127686 420.953339,634.815002 417.698578,637.135010 
	C410.242920,642.449524 406.625946,649.415466 406.942566,658.855896 
	C407.307220,669.729675 403.744110,672.764832 392.779022,672.345093 
	C376.783081,671.732727 362.686432,665.734680 349.672913,656.842468 
	C345.624634,654.076294 342.465179,650.451965 343.750977,645.137207 
	C348.834442,624.125244 345.921356,603.681396 341.172852,582.940491 
	C334.320526,553.009888 338.105865,523.277710 346.414032,494.088257 
	C355.002472,463.914001 365.691650,434.551941 382.283722,407.684113 
	C384.805634,403.600342 385.362885,399.637421 384.240082,394.877136 
	C381.420410,382.922577 378.547119,370.923035 376.867737,358.779358 
	C375.904541,351.814270 377.341248,344.534424 377.443878,337.392609 
	C377.469177,335.630493 376.788849,333.698578 375.924896,332.123291 
	C374.816406,330.102203 373.064636,328.445465 371.815979,326.487640 
	C365.629761,316.787994 366.401337,307.801422 374.028198,299.614288 
	C380.836945,292.305389 391.328033,290.612244 400.515350,295.955902 
	C404.107056,298.044952 406.612549,297.978088 410.388153,296.169556 
	C425.802460,288.786163 442.310638,288.587494 458.834045,290.598297 
	C465.027557,291.352051 470.980774,293.923889 477.139648,295.204834 
	C479.271179,295.648163 481.962555,295.248566 483.939850,294.289215 
	C498.363922,287.291077 515.261963,295.067383 516.212708,310.060791 
	C516.555725,315.471588 513.525330,321.098999 512.017029,326.622864 
	C511.564362,328.280853 510.253754,330.182251 510.691803,331.532257 
	C515.354614,345.903046 513.110657,360.166962 510.727936,374.533112 
	C509.244965,383.474243 508.462524,392.531586 507.365662,401.536774 
	C507.867310,401.791168 508.368958,402.045563 508.870605,402.299957 
	C511.156006,400.559967 513.547668,398.942108 515.709656,397.060364 
	C530.436096,384.242035 547.152832,375.301910 566.364502,371.490295 
	C574.333618,369.909271 582.325012,370.509338 589.822327,374.048004 
	C596.241028,377.077515 600.549194,381.836823 601.454834,389.588013 
M442.181305,383.548859 
	C453.766479,387.561981 465.268127,388.353546 476.421753,382.236847 
	C482.020538,379.166504 484.622437,374.100159 483.545410,368.669342 
	C481.666656,359.196045 477.016174,351.249634 469.477814,345.221100 
	C460.928802,338.384338 450.403625,339.269257 443.986023,348.057434 
	C439.943237,353.593597 436.734955,359.984375 434.369751,366.437958 
	C431.448151,374.409698 433.883392,378.983032 442.181305,383.548859 
M389.445709,303.173035 
	C383.890564,303.671936 380.094971,306.561096 378.711304,311.932129 
	C377.651459,316.046173 379.193115,319.565887 382.458832,322.411835 
	C386.848297,316.574554 391.056519,310.978302 395.655670,304.862122 
	C393.567749,304.233459 391.886444,303.727203 389.445709,303.173035 
M496.698944,300.560791 
	C494.906982,301.163605 493.115021,301.766418 490.734192,302.567322 
	C495.751465,308.298645 500.231781,313.416595 504.765167,318.595184 
	C510.889618,310.485901 507.480621,302.524292 496.698944,300.560791 
M407.342560,490.196136 
	C409.456116,491.147980 411.569672,492.099792 413.683228,493.051605 
	C413.735901,492.741791 413.788574,492.431946 413.841217,492.122101 
	C403.825836,484.697327 393.810455,477.272552 383.795074,469.847778 
	C389.890656,478.338257 397.729706,484.749786 407.342560,490.196136 
M424.987274,348.425446 
	C429.564789,351.105164 433.435852,350.239471 433.881927,346.161102 
	C434.067688,344.462616 433.295319,341.800171 432.054077,341.025635 
	C430.554260,340.089691 427.011078,339.861359 426.285675,340.808136 
	C424.948883,342.552795 425.023376,345.378723 424.987274,348.425446 
M479.773743,338.290070 
	C477.207245,342.462524 477.630096,345.909393 481.184570,346.651154 
	C482.941895,347.017853 485.615448,346.304077 486.803619,345.058075 
	C487.782806,344.031189 487.840698,341.193298 487.143219,339.702332 
	C485.855133,336.948822 483.264130,336.332397 479.773743,338.290070 
M418.111664,427.628265 
	C417.338287,427.303497 416.564941,426.978760 415.791565,426.653992 
	C421.283386,435.905548 428.861206,442.532532 438.628601,446.694031 
	C431.947327,440.492462 425.266052,434.290924 418.111664,427.628265 
M350.676392,535.256714 
	C350.676392,539.144104 350.676392,543.031555 350.676392,546.918945 
	C351.306793,546.912476 351.937195,546.906006 352.567596,546.899597 
	C352.869141,541.161743 353.170685,535.423950 353.472229,529.686157 
	C352.894867,529.617859 352.317505,529.549561 351.740143,529.481262 
	C351.433167,531.125488 351.126190,532.769775 350.676392,535.256714 
M358.055756,568.879517 
	C358.468994,569.744141 358.882202,570.608826 359.295441,571.473511 
	C359.576294,571.377625 359.857117,571.281738 360.137970,571.185852 
	C360.137970,566.689331 360.137970,562.192810 360.137970,557.696350 
	C359.430176,557.694214 358.722412,557.692017 358.014618,557.689880 
	C358.014618,561.136963 358.014618,564.584045 358.055756,568.879517 
M361.512390,503.426575 
	C361.114532,503.242493 360.481323,502.797913 360.353851,502.913055 
	C358.162476,504.892944 356.961090,513.742310 359.069824,518.415588 
	C360.072418,512.771179 360.843018,508.433075 361.512390,503.426575 
M367.012543,531.082642 
	C367.174316,527.941772 367.336090,524.800964 367.497864,521.660095 
	C366.793060,521.637695 366.088287,521.615234 365.383484,521.592834 
	C365.063934,525.750854 364.744415,529.908875 364.424866,534.066956 
	C364.954193,534.141296 365.483521,534.215698 366.012848,534.290039 
	C366.336975,533.481201 366.661102,532.672363 367.012543,531.082642 
z"
      />
      <path
        fill="#EAB48B"
        opacity="1.000000"
        stroke="none"
        d="
M502.033997,586.533203 
	C479.994843,604.863892 443.856934,598.437012 427.116821,584.106506 
	C420.494232,578.437195 416.734436,571.180908 414.569183,563.008301 
	C408.645966,540.651367 410.797119,518.484009 416.500458,496.444550 
	C416.658417,495.834167 417.113281,495.300659 417.354218,494.867126 
	C424.632202,496.421478 431.662140,498.348206 438.821472,499.357086 
	C451.076782,501.084076 463.165283,499.807404 474.365143,494.325195 
	C478.738892,492.184326 483.005981,489.081879 486.127625,485.403961 
	C488.019775,483.174652 487.717896,479.018494 488.226776,475.701172 
	C488.611542,473.193298 488.719482,470.642975 488.926025,468.380859 
	C476.648468,455.304077 458.361115,455.285583 442.675140,448.895599 
	C453.557831,431.640594 475.826630,429.522583 491.316620,444.102020 
	C495.150177,447.710236 498.075470,452.283417 501.643372,456.640930 
	C501.937195,472.163757 502.045868,487.458618 502.066040,502.753571 
	C502.102692,530.525208 502.086700,558.296814 502.033997,586.533203 
z"
      />
      <path
        fill="#0197B2"
        opacity="1.000000"
        stroke="none"
        d="
M634.393433,628.328186 
	C620.176880,627.594116 606.407349,626.889587 592.660950,625.871826 
	C591.312012,625.771973 589.011230,623.761780 588.996521,622.614685 
	C588.763672,604.484497 588.832886,586.350403 588.832886,568.441284 
	C589.436096,568.032837 589.705078,567.690796 589.968933,567.694763 
	C611.063049,568.005066 632.282532,565.552307 653.198547,569.927551 
	C671.830627,573.825073 680.445068,589.605286 673.997009,607.361267 
	C670.389404,617.295654 662.163513,621.944153 652.916382,624.829102 
	C647.101440,626.643311 640.883911,627.167297 634.393433,628.328186 
z"
      />
      <path
        fill="#0298B3"
        opacity="1.000000"
        stroke="none"
        d="
M616.997375,509.835449 
	C607.538147,509.835449 598.578430,509.835449 589.222778,509.835449 
	C589.222778,491.158356 589.222778,472.808380 589.222778,453.756226 
	C594.384033,453.324341 599.615723,452.767151 604.862061,452.470703 
	C618.658264,451.691132 632.446167,451.142975 645.969177,455.009003 
	C663.983276,460.158875 672.111328,474.834076 665.764832,491.378143 
	C661.092896,503.557281 650.597290,507.498505 638.895081,508.869995 
	C631.821716,509.699005 624.633484,509.546814 616.997375,509.835449 
z"
      />
      <path
        fill="#EAB48B"
        opacity="1.000000"
        stroke="none"
        d="
M441.830505,383.388733 
	C433.883392,378.983032 431.448151,374.409698 434.369751,366.437958 
	C436.734955,359.984375 439.943237,353.593597 443.986023,348.057434 
	C450.403625,339.269257 460.928802,338.384338 469.477814,345.221100 
	C477.016174,351.249634 481.666656,359.196045 483.545410,368.669342 
	C484.622437,374.100159 482.020538,379.166504 476.421753,382.236847 
	C465.268127,388.353546 453.766479,387.561981 441.830505,383.388733 
M450.011353,359.312805 
	C451.391510,360.891876 452.508789,362.875549 454.200684,363.974823 
	C459.455597,367.389038 460.111572,368.777985 458.045685,375.404358 
	C455.381561,374.787415 452.589935,374.396454 449.990295,373.467957 
	C447.321259,372.514679 444.839813,371.036041 441.500916,369.409607 
	C444.689636,375.547516 455.267151,379.128632 463.599396,377.704559 
	C471.408600,376.369843 476.113434,373.509064 476.596497,369.949341 
	C472.078888,371.820129 467.472809,373.727539 462.595245,375.747375 
	C461.337982,370.113281 460.654724,366.031586 465.969543,363.239349 
	C468.250824,362.040863 470.714447,359.360077 468.216675,356.215881 
	C464.535400,351.581940 453.137695,353.145203 450.011353,359.312805 
z"
      />
      <path
        fill="#EAB48B"
        opacity="1.000000"
        stroke="none"
        d="
M389.825439,303.197021 
	C391.886444,303.727203 393.567749,304.233459 395.655670,304.862122 
	C391.056519,310.978302 386.848297,316.574554 382.458832,322.411835 
	C379.193115,319.565887 377.651459,316.046173 378.711304,311.932129 
	C380.094971,306.561096 383.890564,303.671936 389.825439,303.197021 
z"
      />
      <path
        fill="#EAB48B"
        opacity="1.000000"
        stroke="none"
        d="
M497.062012,300.558563 
	C507.480621,302.524292 510.889618,310.485901 504.765167,318.595184 
	C500.231781,313.416595 495.751465,308.298645 490.734192,302.567322 
	C493.115021,301.766418 494.906982,301.163605 497.062012,300.558563 
z"
      />
      <path
        fill="#A7653A"
        opacity="1.000000"
        stroke="none"
        d="
M407.015808,490.027344 
	C397.729706,484.749786 389.890656,478.338257 383.795074,469.847778 
	C393.810455,477.272552 403.825836,484.697327 413.841217,492.122101 
	C413.788574,492.431946 413.735901,492.741791 413.683228,493.051605 
	C411.569672,492.099792 409.456116,491.147980 407.015808,490.027344 
z"
      />
      <path
        fill="#6B4936"
        opacity="1.000000"
        stroke="none"
        d="
M424.748505,348.089783 
	C425.023376,345.378723 424.948883,342.552795 426.285675,340.808136 
	C427.011078,339.861359 430.554260,340.089691 432.054077,341.025635 
	C433.295319,341.800171 434.067688,344.462616 433.881927,346.161102 
	C433.435852,350.239471 429.564789,351.105164 424.748505,348.089783 
z"
      />
      <path
        fill="#6B4936"
        opacity="1.000000"
        stroke="none"
        d="
M480.101868,338.075134 
	C483.264130,336.332397 485.855133,336.948822 487.143219,339.702332 
	C487.840698,341.193298 487.782806,344.031189 486.803619,345.058075 
	C485.615448,346.304077 482.941895,347.017853 481.184570,346.651154 
	C477.630096,345.909393 477.207245,342.462524 480.101868,338.075134 
z"
      />
      <path
        fill="#A7653A"
        opacity="1.000000"
        stroke="none"
        d="
M418.348206,427.858826 
	C425.266052,434.290924 431.947327,440.492462 438.628601,446.694031 
	C428.861206,442.532532 421.283386,435.905548 415.791565,426.653992 
	C416.564941,426.978760 417.338287,427.303497 418.348206,427.858826 
z"
      />
      <path
        fill="#A7653A"
        opacity="1.000000"
        stroke="none"
        d="
M468.822662,631.214233 
	C469.762634,630.239990 470.593384,628.599915 471.746765,628.327881 
	C479.782928,626.432312 487.883362,624.807495 495.973022,623.143921 
	C496.561249,623.023010 497.227173,623.279907 498.023407,624.143188 
	C489.024475,628.204651 479.572937,630.423584 469.255585,631.171265 
	C468.801025,631.234802 468.862762,631.181519 468.822662,631.214233 
z"
      />
      <path
        fill="#A7653A"
        opacity="1.000000"
        stroke="none"
        d="
M350.747803,534.835327 
	C351.126190,532.769775 351.433167,531.125488 351.740143,529.481262 
	C352.317505,529.549561 352.894867,529.617859 353.472229,529.686157 
	C353.170685,535.423950 352.869141,541.161743 352.567596,546.899597 
	C351.937195,546.906006 351.306793,546.912476 350.676392,546.918945 
	C350.676392,543.031555 350.676392,539.144104 350.747803,534.835327 
z"
      />
      <path
        fill="#A7653A"
        opacity="1.000000"
        stroke="none"
        d="
M358.035187,568.455322 
	C358.014618,564.584045 358.014618,561.136963 358.014618,557.689880 
	C358.722412,557.692017 359.430176,557.694214 360.137970,557.696350 
	C360.137970,562.192810 360.137970,566.689331 360.137970,571.185852 
	C359.857117,571.281738 359.576294,571.377625 359.295441,571.473511 
	C358.882202,570.608826 358.468994,569.744141 358.035187,568.455322 
z"
      />
      <path
        fill="#A7653A"
        opacity="1.000000"
        stroke="none"
        d="
M361.562988,503.760742 
	C360.843018,508.433075 360.072418,512.771179 359.069824,518.415588 
	C356.961090,513.742310 358.162476,504.892944 360.353851,502.913055 
	C360.481323,502.797913 361.114532,503.242493 361.562988,503.760742 
z"
      />
      <path
        fill="#A7653A"
        opacity="1.000000"
        stroke="none"
        d="
M366.998901,531.473083 
	C366.661102,532.672363 366.336975,533.481201 366.012848,534.290039 
	C365.483521,534.215698 364.954193,534.141296 364.424866,534.066956 
	C364.744415,529.908875 365.063934,525.750854 365.383484,521.592834 
	C366.088287,521.615234 366.793060,521.637695 367.497864,521.660095 
	C367.336090,524.800964 367.174316,527.941772 366.998901,531.473083 
z"
      />
      <path
        fill="#6B4936"
        opacity="1.000000"
        stroke="none"
        d="
M449.991974,358.934326 
	C453.137695,353.145203 464.535400,351.581940 468.216675,356.215881 
	C470.714447,359.360077 468.250824,362.040863 465.969543,363.239349 
	C460.654724,366.031586 461.337982,370.113281 462.595245,375.747375 
	C467.472809,373.727539 472.078888,371.820129 476.596497,369.949341 
	C476.113434,373.509064 471.408600,376.369843 463.599396,377.704559 
	C455.267151,379.128632 444.689636,375.547516 441.500916,369.409607 
	C444.839813,371.036041 447.321259,372.514679 449.990295,373.467957 
	C452.589935,374.396454 455.381561,374.787415 458.045685,375.404358 
	C460.111572,368.777985 459.455597,367.389038 454.200684,363.974823 
	C452.508789,362.875549 451.391510,360.891876 449.991974,358.934326 
z"
      />
</svg>